# xmcd
#
# Track frame offsets:
#	150
#	15822
#	27115
#	42795
#	55522
#	69060
#	85277
#	97722
#	110807
#	122087
#
# Disc length: 1791 seconds
#
# Revision: 1
# Processed by: cddbd v1.4PL0 Copyright (c) Steve Scherf et al.
# Submitted via: audiograbber 1.80.04
#
DISCID=6606fd0a
DTITLE=Various Artist - Country Hits of the 70's
DYEAR=1998
DGENRE=Country
TTITLE0=Don Williams - Till the Rivers All Run Dry
TTITLE1=Donna Fargo - Happiest Girl in the Whole USA
TTITLE2=Oak Ridge Boys - Sail Away
TTITLE3=Conway Twitty - I Can't Stop Loving You
TTITLE4=Marty Robbins - Twentieth Century Drifter
TTITLE5=Cal Smith - It's Time to Pay the Fiddler
TTITLE6=Merle Haggard - It's Been a Great Afternoon
TTITLE7=Freddy Fender - Wasted Days and Wasted Nights
TTITLE8=Lorrie Morgan - Tell Me I'm Only Dreaming
TTITLE9=Crystal Gayle - I've Cried (The Blue Right Out of My Eyes)
EXTD=MCA Records, Distributed by Uni Distribution Corp.
EXTT0=
EXTT1=
EXTT2=
EXTT3=
EXTT4=
EXTT5=
EXTT6=
EXTT7=
EXTT8=
EXTT9=
PLAYORDER=
